<svg width="471" height="427" viewBox="0 0 471 427" fill="none" xmlns="http://www.w3.org/2000/svg">
<g clip-path="url(#clip0_297_30)">
<path d="M426.844 0H44.1562C19.8703 0 0 18.0141 0 40.0312V386.969C0 408.986 19.8703 427 44.1562 427H426.844C451.13 427 471 408.986 471 386.969V40.0312C471 18.0141 451.13 0 426.844 0ZM80.9531 293.562H66.2344L58.875 253.531L66.2344 213.5H80.9531L88.3125 253.531L80.9531 293.562ZM139.828 293.562H125.109L117.75 240.188L125.109 186.812H139.828L147.188 240.188L139.828 293.562ZM198.703 293.562H183.984L176.625 213.5L183.984 133.438H198.703L206.062 213.5L198.703 293.562ZM379.567 293.562L240.946 293.482C239.487 293.329 238.138 292.706 237.143 291.727C236.149 290.747 235.576 289.476 235.529 288.145V144.193C235.529 141.524 236.53 140.189 240.298 138.855C253.066 134.357 266.813 132.612 280.452 133.76C294.091 134.908 307.249 138.916 318.885 145.468C330.521 152.02 340.316 160.936 347.496 171.512C354.677 182.087 359.045 194.032 360.256 206.401C367.864 203.523 376.138 202.393 384.343 203.11C392.548 203.827 400.432 206.37 407.293 210.512C414.154 214.655 419.781 220.269 423.674 226.856C427.568 233.444 429.607 240.8 429.611 248.274C429.611 273.307 407.18 293.562 379.567 293.562Z" fill="#797E7D"/>
</g>
<defs>
<clipPath id="clip0_297_30">
<rect width="471" height="427" rx="213.5" fill="white"/>
</clipPath>
</defs>
</svg>
