<svg width="50" height="50" viewBox="0 0 50 50" fill="none" xmlns="http://www.w3.org/2000/svg">
<path d="M25 0C20.0555 0 15.222 1.46622 11.1108 4.21326C6.99952 6.96029 3.79521 10.8648 1.90302 15.4329C0.0108321 20.0011 -0.484251 25.0277 0.480379 29.8773C1.44501 34.7268 3.82603 39.1813 7.32234 42.6777C10.8187 46.174 15.2732 48.555 20.1227 49.5196C24.9723 50.4843 29.9989 49.9892 34.5671 48.097C39.1352 46.2048 43.0397 43.0005 45.7867 38.8892C48.5338 34.778 50 29.9445 50 25C49.993 18.3717 47.3568 12.017 42.6699 7.33006C37.983 2.64317 31.6283 0.00699956 25 0ZM32.4688 35.0336C32.2302 35.4843 31.8225 35.8218 31.3352 35.9719C30.8479 36.122 30.321 36.0725 29.8702 35.8341C28.373 35.0293 26.6998 34.6081 25 34.6081C23.3002 34.6081 21.627 35.0293 20.1298 35.8341C19.6803 36.0601 19.1601 36.1009 18.6808 35.9479C18.2016 35.7948 17.8014 35.4599 17.5661 35.0152C17.3309 34.5705 17.2793 34.0512 17.4224 33.5689C17.5655 33.0866 17.892 32.6795 18.3317 32.4351C20.3864 31.3483 22.6756 30.7802 25 30.7802C27.3244 30.7802 29.6136 31.3483 31.6683 32.4351C32.1189 32.6736 32.4564 33.0813 32.6065 33.5686C32.7566 34.0559 32.7071 34.5829 32.4688 35.0336ZM36.3149 28.3029C36.0751 28.7529 35.6664 29.0893 35.1787 29.2381C34.6909 29.3868 34.1641 29.3358 33.7139 29.0961C31.0325 27.6675 28.0408 26.9202 25.0024 26.9202C21.9641 26.9202 18.9724 27.6675 16.2909 29.0961C15.8417 29.3255 15.3205 29.3693 14.8394 29.2181C14.3583 29.0668 13.9558 28.7326 13.7188 28.2875C13.4817 27.8424 13.429 27.3219 13.572 26.8383C13.7149 26.3547 14.0422 25.9466 14.4832 25.7019C17.7207 23.9755 21.3333 23.0724 25.0024 23.0724C28.6715 23.0724 32.2841 23.9755 35.5216 25.7019C35.7449 25.8208 35.9425 25.9826 36.1031 26.1781C36.2638 26.3735 36.3843 26.5987 36.4577 26.8407C36.5312 27.0828 36.5562 27.3369 36.5313 27.5887C36.5063 27.8404 36.432 28.0847 36.3125 28.3077L36.3149 28.3029ZM40.1611 21.5721C40.0421 21.7951 39.8804 21.9924 39.6852 22.1528C39.49 22.3132 39.265 22.4336 39.0233 22.5071C38.7815 22.5805 38.5276 22.6056 38.2761 22.5809C38.0247 22.5561 37.7805 22.4821 37.5577 22.363C33.696 20.2946 29.3831 19.2123 25.0024 19.2123C20.6217 19.2123 16.3088 20.2946 12.4471 22.363C11.997 22.6033 11.4699 22.655 10.9816 22.5067C10.4934 22.3584 10.0841 22.0222 9.84376 21.5721C9.60341 21.122 9.5517 20.5949 9.70002 20.1066C9.84833 19.6184 10.1845 19.2091 10.6346 18.9687C15.0543 16.6034 19.9896 15.3658 25.0024 15.3658C30.0152 15.3658 34.9505 16.6034 39.3702 18.9687C39.5936 19.0879 39.7912 19.2499 39.9518 19.4456C40.1124 19.6413 40.2328 19.8668 40.306 20.1091C40.3793 20.3514 40.404 20.6058 40.3787 20.8577C40.3534 21.1096 40.2786 21.354 40.1587 21.5769L40.1611 21.5721Z" fill="#99ABA6" fill-opacity="0.8"/>
</svg>
